Transactor-Regular.ufo
<glyph name="exclam" format="2">
  <advance width="800"/>
  <unicode hex="0021"/>
  <outline>
    <contour>
      <point x="385.0" y="50.0" type="curve" smooth="yes"/>
      <point x="385.0" y="72.0"/>
      <point x="403.0" y="90.0"/>
      <point x="425.0" y="90.0" type="curve" smooth="yes"/>
      <point x="475.0" y="90.0" type="line" smooth="yes"/>
      <point x="497.0" y="90.0"/>
      <point x="515.0" y="72.0"/>
      <point x="515.0" y="50.0" type="curve" smooth="yes"/>
      <point x="515.0" y="28.0"/>
      <point x="497.0" y="10.0"/>
      <point x="475.0" y="10.0" type="curve" smooth="yes"/>
      <point x="425.0" y="10.0" type="line" smooth="yes"/>
      <point x="403.0" y="10.0"/>
      <point x="385.0" y="28.0"/>
    </contour>
    <contour>
      <point x="385.0" y="350.0" type="curve" smooth="yes"/>
      <point x="385.0" y="372.0"/>
      <point x="403.0" y="390.0"/>
      <point x="425.0" y="390.0" type="curve" smooth="yes"/>
      <point x="475.0" y="390.0" type="line" smooth="yes"/>
      <point x="497.0" y="390.0"/>
      <point x="515.0" y="372.0"/>
      <point x="515.0" y="350.0" type="curve" smooth="yes"/>
      <point x="515.0" y="328.0"/>
      <point x="497.0" y="310.0"/>
      <point x="475.0" y="310.0" type="curve" smooth="yes"/>
      <point x="425.0" y="310.0" type="line" smooth="yes"/>
      <point x="403.0" y="310.0"/>
      <point x="385.0" y="328.0"/>
    </contour>
    <contour>
      <point x="385.0" y="450.0" type="curve" smooth="yes"/>
      <point x="385.0" y="472.0"/>
      <point x="403.0" y="490.0"/>
      <point x="425.0" y="490.0" type="curve" smooth="yes"/>
      <point x="475.0" y="490.0" type="line" smooth="yes"/>
      <point x="497.0" y="490.0"/>
      <point x="515.0" y="472.0"/>
      <point x="515.0" y="450.0" type="curve" smooth="yes"/>
      <point x="515.0" y="428.0"/>
      <point x="497.0" y="410.0"/>
      <point x="475.0" y="410.0" type="curve" smooth="yes"/>
      <point x="425.0" y="410.0" type="line" smooth="yes"/>
      <point x="403.0" y="410.0"/>
      <point x="385.0" y="428.0"/>
    </contour>
    <contour>
      <point x="385.0" y="550.0" type="curve" smooth="yes"/>
      <point x="385.0" y="572.0"/>
      <point x="403.0" y="590.0"/>
      <point x="425.0" y="590.0" type="curve" smooth="yes"/>
      <point x="475.0" y="590.0" type="line" smooth="yes"/>
      <point x="497.0" y="590.0"/>
      <point x="515.0" y="572.0"/>
      <point x="515.0" y="550.0" type="curve" smooth="yes"/>
      <point x="515.0" y="528.0"/>
      <point x="497.0" y="510.0"/>
      <point x="475.0" y="510.0" type="curve" smooth="yes"/>
      <point x="425.0" y="510.0" type="line" smooth="yes"/>
      <point x="403.0" y="510.0"/>
      <point x="385.0" y="528.0"/>
    </contour>
    <contour>
      <point x="385.0" y="650.0" type="curve" smooth="yes"/>
      <point x="385.0" y="672.0"/>
      <point x="403.0" y="690.0"/>
      <point x="425.0" y="690.0" type="curve" smooth="yes"/>
      <point x="475.0" y="690.0" type="line" smooth="yes"/>
      <point x="497.0" y="690.0"/>
      <point x="515.0" y="672.0"/>
      <point x="515.0" y="650.0" type="curve" smooth="yes"/>
      <point x="515.0" y="628.0"/>
      <point x="497.0" y="610.0"/>
      <point x="475.0" y="610.0" type="curve" smooth="yes"/>
      <point x="425.0" y="610.0" type="line" smooth="yes"/>
      <point x="403.0" y="610.0"/>
      <point x="385.0" y="628.0"/>
    </contour>
  </outline>
</glyph>
<glyph name="hyphen" format="2">
  <advance width="800"/>
  <unicode hex="002D"/>
  <outline>
    <contour>
      <point x="85.0" y="350.0" type="curve" smooth="yes"/>
      <point x="85.0" y="372.0"/>
      <point x="103.0" y="390.0"/>
      <point x="125.0" y="390.0" type="curve" smooth="yes"/>
      <point x="675.0" y="390.0" type="line" smooth="yes"/>
      <point x="697.0" y="390.0"/>
      <point x="715.0" y="372.0"/>
      <point x="715.0" y="350.0" type="curve" smooth="yes"/>
      <point x="715.0" y="328.0"/>
      <point x="697.0" y="310.0"/>
      <point x="675.0" y="310.0" type="curve" smooth="yes"/>
      <point x="125.0" y="310.0" type="line" smooth="yes"/>
      <point x="103.0" y="310.0"/>
      <point x="85.0" y="328.0"/>
    </contour>
  </outline>
</glyph>
<glyph name="period" format="2">
  <advance width="800"/>
  <unicode hex="002E"/>
  <outline>
    <contour>
      <point x="285.0" y="50.0" type="curve" smooth="yes"/>
      <point x="285.0" y="72.0"/>
      <point x="303.0" y="90.0"/>
      <point x="325.0" y="90.0" type="curve" smooth="yes"/>
      <point x="475.0" y="90.0" type="line" smooth="yes"/>
      <point x="497.0" y="90.0"/>
      <point x="515.0" y="72.0"/>
      <point x="515.0" y="50.0" type="curve" smooth="yes"/>
      <point x="515.0" y="28.0"/>
      <point x="497.0" y="10.0"/>
      <point x="475.0" y="10.0" type="curve" smooth="yes"/>
      <point x="325.0" y="10.0" type="line" smooth="yes"/>
      <point x="303.0" y="10.0"/>
      <point x="285.0" y="28.0"/>
    </contour>
    <contour>
      <point x="285.0" y="150.0" type="curve" smooth="yes"/>
      <point x="285.0" y="172.0"/>
      <point x="303.0" y="190.0"/>
      <point x="325.0" y="190.0" type="curve" smooth="yes"/>
      <point x="475.0" y="190.0" type="line" smooth="yes"/>
      <point x="497.0" y="190.0"/>
      <point x="515.0" y="172.0"/>
      <point x="515.0" y="150.0" type="curve" smooth="yes"/>
      <point x="515.0" y="128.0"/>
      <point x="497.0" y="110.0"/>
      <point x="475.0" y="110.0" type="curve" smooth="yes"/>
      <point x="325.0" y="110.0" type="line" smooth="yes"/>
      <point x="303.0" y="110.0"/>
      <point x="285.0" y="128.0"/>
    </contour>
  </outline>
</glyph>
<glyph name="colon" format="2">
  <advance width="800"/>
  <unicode hex="003A"/>
  <outline>
    <contour>
      <point x="385.0" y="150.0" type="curve" smooth="yes"/>
      <point x="385.0" y="172.0"/>
      <point x="403.0" y="190.0"/>
      <point x="425.0" y="190.0" type="curve" smooth="yes"/>
      <point x="475.0" y="190.0" type="line" smooth="yes"/>
      <point x="497.0" y="190.0"/>
      <point x="515.0" y="172.0"/>
      <point x="515.0" y="150.0" type="curve" smooth="yes"/>
      <point x="515.0" y="128.0"/>
      <point x="497.0" y="110.0"/>
      <point x="475.0" y="110.0" type="curve" smooth="yes"/>
      <point x="425.0" y="110.0" type="line" smooth="yes"/>
      <point x="403.0" y="110.0"/>
      <point x="385.0" y="128.0"/>
    </contour>
    <contour>
      <point x="385.0" y="450.0" type="curve" smooth="yes"/>
      <point x="385.0" y="472.0"/>
      <point x="403.0" y="490.0"/>
      <point x="425.0" y="490.0" type="curve" smooth="yes"/>
      <point x="475.0" y="490.0" type="line" smooth="yes"/>
      <point x="497.0" y="490.0"/>
      <point x="515.0" y="472.0"/>
      <point x="515.0" y="450.0" type="curve" smooth="yes"/>
      <point x="515.0" y="428.0"/>
      <point x="497.0" y="410.0"/>
      <point x="475.0" y="410.0" type="curve" smooth="yes"/>
      <point x="425.0" y="410.0" type="line" smooth="yes"/>
      <point x="403.0" y="410.0"/>
      <point x="385.0" y="428.0"/>
    </contour>
  </outline>
</glyph>
<glyph name="semicolon" format="2">
  <advance width="800"/>
  <unicode hex="003B"/>
  <outline>
    <contour>
      <point x="285.0" y="-50.0" type="curve" smooth="yes"/>
      <point x="285.0" y="-28.0"/>
      <point x="303.0" y="-10.0"/>
      <point x="325.0" y="-10.0" type="curve" smooth="yes"/>
      <point x="375.0" y="-10.0" type="line" smooth="yes"/>
      <point x="397.0" y="-10.0"/>
      <point x="415.0" y="-28.0"/>
      <point x="415.0" y="-50.0" type="curve" smooth="yes"/>
      <point x="415.0" y="-72.0"/>
      <point x="397.0" y="-90.0"/>
      <point x="375.0" y="-90.0" type="curve" smooth="yes"/>
      <point x="325.0" y="-90.0" type="line" smooth="yes"/>
      <point x="303.0" y="-90.0"/>
      <point x="285.0" y="-72.0"/>
    </contour>
    <contour>
      <point x="385.0" y="50.0" type="curve" smooth="yes"/>
      <point x="385.0" y="72.0"/>
      <point x="403.0" y="90.0"/>
      <point x="425.0" y="90.0" type="curve" smooth="yes"/>
      <point x="475.0" y="90.0" type="line" smooth="yes"/>
      <point x="497.0" y="90.0"/>
      <point x="515.0" y="72.0"/>
      <point x="515.0" y="50.0" type="curve" smooth="yes"/>
      <point x="515.0" y="28.0"/>
      <point x="497.0" y="10.0"/>
      <point x="475.0" y="10.0" type="curve" smooth="yes"/>
      <point x="425.0" y="10.0" type="line" smooth="yes"/>
      <point x="403.0" y="10.0"/>
      <point x="385.0" y="28.0"/>
    </contour>
    <contour>
      <point x="385.0" y="150.0" type="curve" smooth="yes"/>
      <point x="385.0" y="172.0"/>
      <point x="403.0" y="190.0"/>
      <point x="425.0" y="190.0" type="curve" smooth="yes"/>
      <point x="475.0" y="190.0" type="line" smooth="yes"/>
      <point x="497.0" y="190.0"/>
      <point x="515.0" y="172.0"/>
      <point x="515.0" y="150.0" type="curve" smooth="yes"/>
      <point x="515.0" y="128.0"/>
      <point x="497.0" y="110.0"/>
      <point x="475.0" y="110.0" type="curve" smooth="yes"/>
      <point x="425.0" y="110.0" type="line" smooth="yes"/>
      <point x="403.0" y="110.0"/>
      <point x="385.0" y="128.0"/>
    </contour>
    <contour>
      <point x="385.0" y="450.0" type="curve" smooth="yes"/>
      <point x="385.0" y="472.0"/>
      <point x="403.0" y="490.0"/>
      <point x="425.0" y="490.0" type="curve" smooth="yes"/>
      <point x="475.0" y="490.0" type="line" smooth="yes"/>
      <point x="497.0" y="490.0"/>
      <point x="515.0" y="472.0"/>
      <point x="515.0" y="450.0" type="curve" smooth="yes"/>
      <point x="515.0" y="428.0"/>
      <point x="497.0" y="410.0"/>
      <point x="475.0" y="410.0" type="curve" smooth="yes"/>
      <point x="425.0" y="410.0" type="line" smooth="yes"/>
      <point x="403.0" y="410.0"/>
      <point x="385.0" y="428.0"/>
    </contour>
  </outline>
</glyph>
<glyph name="equal" format="2">
  <advance width="800"/>
  <unicode hex="003D"/>
  <outline>
    <contour>
      <point x="85.0" y="250.0" type="curve" smooth="yes"/>
      <point x="85.0" y="272.0"/>
      <point x="103.0" y="290.0"/>
      <point x="125.0" y="290.0" type="curve" smooth="yes"/>
      <point x="675.0" y="290.0" type="line" smooth="yes"/>
      <point x="697.0" y="290.0"/>
      <point x="715.0" y="272.0"/>
      <point x="715.0" y="250.0" type="curve" smooth="yes"/>
      <point x="715.0" y="228.0"/>
      <point x="697.0" y="210.0"/>
      <point x="675.0" y="210.0" type="curve" smooth="yes"/>
      <point x="125.0" y="210.0" type="line" smooth="yes"/>
      <point x="103.0" y="210.0"/>
      <point x="85.0" y="228.0"/>
    </contour>
    <contour>
      <point x="85.0" y="450.0" type="curve" smooth="yes"/>
      <point x="85.0" y="472.0"/>
      <point x="103.0" y="490.0"/>
      <point x="125.0" y="490.0" type="curve" smooth="yes"/>
      <point x="675.0" y="490.0" type="line" smooth="yes"/>
      <point x="697.0" y="490.0"/>
      <point x="715.0" y="472.0"/>
      <point x="715.0" y="450.0" type="curve" smooth="yes"/>
      <point x="715.0" y="428.0"/>
      <point x="697.0" y="410.0"/>
      <point x="675.0" y="410.0" type="curve" smooth="yes"/>
      <point x="125.0" y="410.0" type="line" smooth="yes"/>
      <point x="103.0" y="410.0"/>
      <point x="85.0" y="428.0"/>
    </contour>
  </outline>
</glyph>
<glyph name="t" format="2">
  <advance width="800"/>
  <unicode hex="0074"/>
  <outline>
    <contour>
      <point x="385.0" y="50.0" type="curve" smooth="yes"/>
      <point x="385.0" y="72.0"/>
      <point x="403.0" y="90.0"/>
      <point x="425.0" y="90.0" type="curve" smooth="yes"/>
      <point x="575.0" y="90.0" type="line" smooth="yes"/>
      <point x="597.0" y="90.0"/>
      <point x="615.0" y="72.0"/>
      <point x="615.0" y="50.0" type="curve" smooth="yes"/>
      <point x="615.0" y="28.0"/>
      <point x="597.0" y="10.0"/>
      <point x="575.0" y="10.0" type="curve" smooth="yes"/>
      <point x="425.0" y="10.0" type="line" smooth="yes"/>
      <point x="403.0" y="10.0"/>
      <point x="385.0" y="28.0"/>
    </contour>
    <contour>
      <point x="585.0" y="150.0" type="curve" smooth="yes"/>
      <point x="585.0" y="172.0"/>
      <point x="603.0" y="190.0"/>
      <point x="625.0" y="190.0" type="curve" smooth="yes"/>
      <point x="675.0" y="190.0" type="line" smooth="yes"/>
      <point x="697.0" y="190.0"/>
      <point x="715.0" y="172.0"/>
      <point x="715.0" y="150.0" type="curve" smooth="yes"/>
      <point x="715.0" y="128.0"/>
      <point x="697.0" y="110.0"/>
      <point x="675.0" y="110.0" type="curve" smooth="yes"/>
      <point x="625.0" y="110.0" type="line" smooth="yes"/>
      <point x="603.0" y="110.0"/>
      <point x="585.0" y="128.0"/>
    </contour>
    <contour>
      <point x="285.0" y="150.0" type="curve" smooth="yes"/>
      <point x="285.0" y="172.0"/>
      <point x="303.0" y="190.0"/>
      <point x="325.0" y="190.0" type="curve" smooth="yes"/>
      <point x="375.0" y="190.0" type="line" smooth="yes"/>
      <point x="397.0" y="190.0"/>
      <point x="415.0" y="172.0"/>
      <point x="415.0" y="150.0" type="curve" smooth="yes"/>
      <point x="415.0" y="128.0"/>
      <point x="397.0" y="110.0"/>
      <point x="375.0" y="110.0" type="curve" smooth="yes"/>
      <point x="325.0" y="110.0" type="line" smooth="yes"/>
      <point x="303.0" y="110.0"/>
      <point x="285.0" y="128.0"/>
    </contour>
    <contour>
      <point x="285.0" y="250.0" type="curve" smooth="yes"/>
      <point x="285.0" y="272.0"/>
      <point x="303.0" y="290.0"/>
      <point x="325.0" y="290.0" type="curve" smooth="yes"/>
      <point x="375.0" y="290.0" type="line" smooth="yes"/>
      <point x="397.0" y="290.0"/>
      <point x="415.0" y="272.0"/>
      <point x="415.0" y="250.0" type="curve" smooth="yes"/>
      <point x="415.0" y="228.0"/>
      <point x="397.0" y="210.0"/>
      <point x="375.0" y="210.0" type="curve" smooth="yes"/>
      <point x="325.0" y="210.0" type="line" smooth="yes"/>
      <point x="303.0" y="210.0"/>
      <point x="285.0" y="228.0"/>
    </contour>
    <contour>
      <point x="285.0" y="350.0" type="curve" smooth="yes"/>
      <point x="285.0" y="372.0"/>
      <point x="303.0" y="390.0"/>
      <point x="325.0" y="390.0" type="curve" smooth="yes"/>
      <point x="375.0" y="390.0" type="line" smooth="yes"/>
      <point x="397.0" y="390.0"/>
      <point x="415.0" y="372.0"/>
      <point x="415.0" y="350.0" type="curve" smooth="yes"/>
      <point x="415.0" y="328.0"/>
      <point x="397.0" y="310.0"/>
      <point x="375.0" y="310.0" type="curve" smooth="yes"/>
      <point x="325.0" y="310.0" type="line" smooth="yes"/>
      <point x="303.0" y="310.0"/>
      <point x="285.0" y="328.0"/>
    </contour>
    <contour>
      <point x="85.0" y="450.0" type="curve" smooth="yes"/>
      <point x="85.0" y="472.0"/>
      <point x="103.0" y="490.0"/>
      <point x="125.0" y="490.0" type="curve" smooth="yes"/>
      <point x="575.0" y="490.0" type="line" smooth="yes"/>
      <point x="597.0" y="490.0"/>
      <point x="615.0" y="472.0"/>
      <point x="615.0" y="450.0" type="curve" smooth="yes"/>
      <point x="615.0" y="428.0"/>
      <point x="597.0" y="410.0"/>
      <point x="575.0" y="410.0" type="curve" smooth="yes"/>
      <point x="125.0" y="410.0" type="line" smooth="yes"/>
      <point x="103.0" y="410.0"/>
      <point x="85.0" y="428.0"/>
    </contour>
    <contour>
      <point x="285.0" y="550.0" type="curve" smooth="yes"/>
      <point x="285.0" y="572.0"/>
      <point x="303.0" y="590.0"/>
      <point x="325.0" y="590.0" type="curve" smooth="yes"/>
      <point x="375.0" y="590.0" type="line" smooth="yes"/>
      <point x="397.0" y="590.0"/>
      <point x="415.0" y="572.0"/>
      <point x="415.0" y="550.0" type="curve" smooth="yes"/>
      <point x="415.0" y="528.0"/>
      <point x="397.0" y="510.0"/>
      <point x="375.0" y="510.0" type="curve" smooth="yes"/>
      <point x="325.0" y="510.0" type="line" smooth="yes"/>
      <point x="303.0" y="510.0"/>
      <point x="285.0" y="528.0"/>
    </contour>
    <contour>
      <point x="285.0" y="650.0" type="curve" smooth="yes"/>
      <point x="285.0" y="672.0"/>
      <point x="303.0" y="690.0"/>
      <point x="325.0" y="690.0" type="curve" smooth="yes"/>
      <point x="375.0" y="690.0" type="line" smooth="yes"/>
      <point x="397.0" y="690.0"/>
      <point x="415.0" y="672.0"/>
      <point x="415.0" y="650.0" type="curve" smooth="yes"/>
      <point x="415.0" y="628.0"/>
      <point x="397.0" y="610.0"/>
      <point x="375.0" y="610.0" type="curve" smooth="yes"/>
      <point x="325.0" y="610.0" type="line" smooth="yes"/>
      <point x="303.0" y="610.0"/>
      <point x="285.0" y="628.0"/>
    </contour>
  </outline>
</glyph>
<glyph name="arrowleft" format="2">
  <advance width="800"/>
  <unicode hex="2190"/>
  <outline>
    <contour>
      <point x="285.0" y="50.0" type="curve" smooth="yes"/>
      <point x="285.0" y="72.0"/>
      <point x="303.0" y="90.0"/>
      <point x="325.0" y="90.0" type="curve" smooth="yes"/>
      <point x="375.0" y="90.0" type="line" smooth="yes"/>
      <point x="397.0" y="90.0"/>
      <point x="415.0" y="72.0"/>
      <point x="415.0" y="50.0" type="curve" smooth="yes"/>
      <point x="415.0" y="28.0"/>
      <point x="397.0" y="10.0"/>
      <point x="375.0" y="10.0" type="curve" smooth="yes"/>
      <point x="325.0" y="10.0" type="line" smooth="yes"/>
      <point x="303.0" y="10.0"/>
      <point x="285.0" y="28.0"/>
    </contour>
    <contour>
      <point x="185.0" y="150.0" type="curve" smooth="yes"/>
      <point x="185.0" y="172.0"/>
      <point x="203.0" y="190.0"/>
      <point x="225.0" y="190.0" type="curve" smooth="yes"/>
      <point x="275.0" y="190.0" type="line" smooth="yes"/>
      <point x="297.0" y="190.0"/>
      <point x="315.0" y="172.0"/>
      <point x="315.0" y="150.0" type="curve" smooth="yes"/>
      <point x="315.0" y="128.0"/>
      <point x="297.0" y="110.0"/>
      <point x="275.0" y="110.0" type="curve" smooth="yes"/>
      <point x="225.0" y="110.0" type="line" smooth="yes"/>
      <point x="203.0" y="110.0"/>
      <point x="185.0" y="128.0"/>
    </contour>
    <contour>
      <point x="85.0" y="250.0" type="curve" smooth="yes"/>
      <point x="85.0" y="272.0"/>
      <point x="103.0" y="290.0"/>
      <point x="125.0" y="290.0" type="curve" smooth="yes"/>
      <point x="775.0" y="290.0" type="line" smooth="yes"/>
      <point x="797.0" y="290.0"/>
      <point x="815.0" y="272.0"/>
      <point x="815.0" y="250.0" type="curve" smooth="yes"/>
      <point x="815.0" y="228.0"/>
      <point x="797.0" y="210.0"/>
      <point x="775.0" y="210.0" type="curve" smooth="yes"/>
      <point x="125.0" y="210.0" type="line" smooth="yes"/>
      <point x="103.0" y="210.0"/>
      <point x="85.0" y="228.0"/>
    </contour>
    <contour>
      <point x="185.0" y="350.0" type="curve" smooth="yes"/>
      <point x="185.0" y="372.0"/>
      <point x="203.0" y="390.0"/>
      <point x="225.0" y="390.0" type="curve" smooth="yes"/>
      <point x="275.0" y="390.0" type="line" smooth="yes"/>
      <point x="297.0" y="390.0"/>
      <point x="315.0" y="372.0"/>
      <point x="315.0" y="350.0" type="curve" smooth="yes"/>
      <point x="315.0" y="328.0"/>
      <point x="297.0" y="310.0"/>
      <point x="275.0" y="310.0" type="curve" smooth="yes"/>
      <point x="225.0" y="310.0" type="line" smooth="yes"/>
      <point x="203.0" y="310.0"/>
      <point x="185.0" y="328.0"/>
    </contour>
    <contour>
      <point x="285.0" y="450.0" type="curve" smooth="yes"/>
      <point x="285.0" y="472.0"/>
      <point x="303.0" y="490.0"/>
      <point x="325.0" y="490.0" type="curve" smooth="yes"/>
      <point x="375.0" y="490.0" type="line" smooth="yes"/>
      <point x="397.0" y="490.0"/>
      <point x="415.0" y="472.0"/>
      <point x="415.0" y="450.0" type="curve" smooth="yes"/>
      <point x="415.0" y="428.0"/>
      <point x="397.0" y="410.0"/>
      <point x="375.0" y="410.0" type="curve" smooth="yes"/>
      <point x="325.0" y="410.0" type="line" smooth="yes"/>
      <point x="303.0" y="410.0"/>
      <point x="285.0" y="428.0"/>
    </contour>
  </outline>
</glyph>
<glyph name="uni2500" format="2">
  <advance width="800"/>
  <unicode hex="2500"/>
  <outline>
    <contour>
      <point x="-15.0" y="250.0" type="curve" smooth="yes"/>
      <point x="-15.0" y="272.0"/>
      <point x="3.0" y="290.0"/>
      <point x="25.0" y="290.0" type="curve" smooth="yes"/>
      <point x="775.0" y="290.0" type="line" smooth="yes"/>
      <point x="797.0" y="290.0"/>
      <point x="815.0" y="272.0"/>
      <point x="815.0" y="250.0" type="curve" smooth="yes"/>
      <point x="815.0" y="228.0"/>
      <point x="797.0" y="210.0"/>
      <point x="775.0" y="210.0" type="curve" smooth="yes"/>
      <point x="25.0" y="210.0" type="line" smooth="yes"/>
      <point x="3.0" y="210.0"/>
      <point x="-15.0" y="228.0"/>
    </contour>
  </outline>
</glyph>
<glyph name="uni250C" format="2">
  <advance width="800"/>
  <unicode hex="250C"/>
  <outline>
    <contour>
      <point x="385.0" y="-50.0" type="curve" smooth="yes"/>
      <point x="385.0" y="-28.0"/>
      <point x="403.0" y="-10.0"/>
      <point x="425.0" y="-10.0" type="curve" smooth="yes"/>
      <point x="475.0" y="-10.0" type="line" smooth="yes"/>
      <point x="497.0" y="-10.0"/>
      <point x="515.0" y="-28.0"/>
      <point x="515.0" y="-50.0" type="curve" smooth="yes"/>
      <point x="515.0" y="-72.0"/>
      <point x="497.0" y="-90.0"/>
      <point x="475.0" y="-90.0" type="curve" smooth="yes"/>
      <point x="425.0" y="-90.0" type="line" smooth="yes"/>
      <point x="403.0" y="-90.0"/>
      <point x="385.0" y="-72.0"/>
    </contour>
    <contour>
      <point x="385.0" y="50.0" type="curve" smooth="yes"/>
      <point x="385.0" y="72.0"/>
      <point x="403.0" y="90.0"/>
      <point x="425.0" y="90.0" type="curve" smooth="yes"/>
      <point x="475.0" y="90.0" type="line" smooth="yes"/>
      <point x="497.0" y="90.0"/>
      <point x="515.0" y="72.0"/>
      <point x="515.0" y="50.0" type="curve" smooth="yes"/>
      <point x="515.0" y="28.0"/>
      <point x="497.0" y="10.0"/>
      <point x="475.0" y="10.0" type="curve" smooth="yes"/>
      <point x="425.0" y="10.0" type="line" smooth="yes"/>
      <point x="403.0" y="10.0"/>
      <point x="385.0" y="28.0"/>
    </contour>
    <contour>
      <point x="385.0" y="150.0" type="curve" smooth="yes"/>
      <point x="385.0" y="172.0"/>
      <point x="403.0" y="190.0"/>
      <point x="425.0" y="190.0" type="curve" smooth="yes"/>
      <point x="475.0" y="190.0" type="line" smooth="yes"/>
      <point x="497.0" y="190.0"/>
      <point x="515.0" y="172.0"/>
      <point x="515.0" y="150.0" type="curve" smooth="yes"/>
      <point x="515.0" y="128.0"/>
      <point x="497.0" y="110.0"/>
      <point x="475.0" y="110.0" type="curve" smooth="yes"/>
      <point x="425.0" y="110.0" type="line" smooth="yes"/>
      <point x="403.0" y="110.0"/>
      <point x="385.0" y="128.0"/>
    </contour>
    <contour>
      <point x="385.0" y="250.0" type="curve" smooth="yes"/>
      <point x="385.0" y="272.0"/>
      <point x="403.0" y="290.0"/>
      <point x="425.0" y="290.0" type="curve" smooth="yes"/>
      <point x="775.0" y="290.0" type="line" smooth="yes"/>
      <point x="797.0" y="290.0"/>
      <point x="815.0" y="272.0"/>
      <point x="815.0" y="250.0" type="curve" smooth="yes"/>
      <point x="815.0" y="228.0"/>
      <point x="797.0" y="210.0"/>
      <point x="775.0" y="210.0" type="curve" smooth="yes"/>
      <point x="425.0" y="210.0" type="line" smooth="yes"/>
      <point x="403.0" y="210.0"/>
      <point x="385.0" y="228.0"/>
    </contour>
  </outline>
</glyph>
<glyph name="uni256D" format="2">
  <advance width="800"/>
  <unicode hex="256D"/>
  <outline>
    <contour>
      <point x="385.0" y="-50.0" type="curve" smooth="yes"/>
      <point x="385.0" y="-28.0"/>
      <point x="403.0" y="-10.0"/>
      <point x="425.0" y="-10.0" type="curve" smooth="yes"/>
      <point x="475.0" y="-10.0" type="line" smooth="yes"/>
      <point x="497.0" y="-10.0"/>
      <point x="515.0" y="-28.0"/>
      <point x="515.0" y="-50.0" type="curve" smooth="yes"/>
      <point x="515.0" y="-72.0"/>
      <point x="497.0" y="-90.0"/>
      <point x="475.0" y="-90.0" type="curve" smooth="yes"/>
      <point x="425.0" y="-90.0" type="line" smooth="yes"/>
      <point x="403.0" y="-90.0"/>
      <point x="385.0" y="-72.0"/>
    </contour>
    <contour>
      <point x="385.0" y="50.0" type="curve" smooth="yes"/>
      <point x="385.0" y="72.0"/>
      <point x="403.0" y="90.0"/>
      <point x="425.0" y="90.0" type="curve" smooth="yes"/>
      <point x="475.0" y="90.0" type="line" smooth="yes"/>
      <point x="497.0" y="90.0"/>
      <point x="515.0" y="72.0"/>
      <point x="515.0" y="50.0" type="curve" smooth="yes"/>
      <point x="515.0" y="28.0"/>
      <point x="497.0" y="10.0"/>
      <point x="475.0" y="10.0" type="curve" smooth="yes"/>
      <point x="425.0" y="10.0" type="line" smooth="yes"/>
      <point x="403.0" y="10.0"/>
      <point x="385.0" y="28.0"/>
    </contour>
    <contour>
      <point x="485.0" y="150.0" type="curve" smooth="yes"/>
      <point x="485.0" y="172.0"/>
      <point x="503.0" y="190.0"/>
      <point x="525.0" y="190.0" type="curve" smooth="yes"/>
      <point x="575.0" y="190.0" type="line" smooth="yes"/>
      <point x="597.0" y="190.0"/>
      <point x="615.0" y="172.0"/>
      <point x="615.0" y="150.0" type="curve" smooth="yes"/>
      <point x="615.0" y="128.0"/>
      <point x="597.0" y="110.0"/>
      <point x="575.0" y="110.0" type="curve" smooth="yes"/>
      <point x="525.0" y="110.0" type="line" smooth="yes"/>
      <point x="503.0" y="110.0"/>
      <point x="485.0" y="128.0"/>
    </contour>
    <contour>
      <point x="585.0" y="250.0" type="curve" smooth="yes"/>
      <point x="585.0" y="272.0"/>
      <point x="603.0" y="290.0"/>
      <point x="625.0" y="290.0" type="curve" smooth="yes"/>
      <point x="775.0" y="290.0" type="line" smooth="yes"/>
      <point x="797.0" y="290.0"/>
      <point x="815.0" y="272.0"/>
      <point x="815.0" y="250.0" type="curve" smooth="yes"/>
      <point x="815.0" y="228.0"/>
      <point x="797.0" y="210.0"/>
      <point x="775.0" y="210.0" type="curve" smooth="yes"/>
      <point x="625.0" y="210.0" type="line" smooth="yes"/>
      <point x="603.0" y="210.0"/>
      <point x="585.0" y="228.0"/>
    </contour>
  </outline>
</glyph>
<glyph name="uni256E" format="2">
  <advance width="800"/>
  <unicode hex="256E"/>
  <outline>
    <contour>
      <point x="385.0" y="-50.0" type="curve" smooth="yes"/>
      <point x="385.0" y="-28.0"/>
      <point x="403.0" y="-10.0"/>
      <point x="425.0" y="-10.0" type="curve" smooth="yes"/>
      <point x="475.0" y="-10.0" type="line" smooth="yes"/>
      <point x="497.0" y="-10.0"/>
      <point x="515.0" y="-28.0"/>
      <point x="515.0" y="-50.0" type="curve" smooth="yes"/>
      <point x="515.0" y="-72.0"/>
      <point x="497.0" y="-90.0"/>
      <point x="475.0" y="-90.0" type="curve" smooth="yes"/>
      <point x="425.0" y="-90.0" type="line" smooth="yes"/>
      <point x="403.0" y="-90.0"/>
      <point x="385.0" y="-72.0"/>
    </contour>
    <contour>
      <point x="385.0" y="50.0" type="curve" smooth="yes"/>
      <point x="385.0" y="72.0"/>
      <point x="403.0" y="90.0"/>
      <point x="425.0" y="90.0" type="curve" smooth="yes"/>
      <point x="475.0" y="90.0" type="line" smooth="yes"/>
      <point x="497.0" y="90.0"/>
      <point x="515.0" y="72.0"/>
      <point x="515.0" y="50.0" type="curve" smooth="yes"/>
      <point x="515.0" y="28.0"/>
      <point x="497.0" y="10.0"/>
      <point x="475.0" y="10.0" type="curve" smooth="yes"/>
      <point x="425.0" y="10.0" type="line" smooth="yes"/>
      <point x="403.0" y="10.0"/>
      <point x="385.0" y="28.0"/>
    </contour>
    <contour>
      <point x="285.0" y="150.0" type="curve" smooth="yes"/>
      <point x="285.0" y="172.0"/>
      <point x="303.0" y="190.0"/>
      <point x="325.0" y="190.0" type="curve" smooth="yes"/>
      <point x="375.0" y="190.0" type="line" smooth="yes"/>
      <point x="397.0" y="190.0"/>
      <point x="415.0" y="172.0"/>
      <point x="415.0" y="150.0" type="curve" smooth="yes"/>
      <point x="415.0" y="128.0"/>
      <point x="397.0" y="110.0"/>
      <point x="375.0" y="110.0" type="curve" smooth="yes"/>
      <point x="325.0" y="110.0" type="line" smooth="yes"/>
      <point x="303.0" y="110.0"/>
      <point x="285.0" y="128.0"/>
    </contour>
    <contour>
      <point x="-15.0" y="250.0" type="curve" smooth="yes"/>
      <point x="-15.0" y="272.0"/>
      <point x="3.0" y="290.0"/>
      <point x="25.0" y="290.0" type="curve" smooth="yes"/>
      <point x="275.0" y="290.0" type="line" smooth="yes"/>
      <point x="297.0" y="290.0"/>
      <point x="315.0" y="272.0"/>
      <point x="315.0" y="250.0" type="curve" smooth="yes"/>
      <point x="315.0" y="228.0"/>
      <point x="297.0" y="210.0"/>
      <point x="275.0" y="210.0" type="curve" smooth="yes"/>
      <point x="25.0" y="210.0" type="line" smooth="yes"/>
      <point x="3.0" y="210.0"/>
      <point x="-15.0" y="228.0"/>
    </contour>
  </outline>
</glyph>
<glyph name="uni2570" format="2">
  <advance width="800"/>
  <unicode hex="2570"/>
  <outline>
    <contour>
      <point x="585.0" y="250.0" type="curve" smooth="yes"/>
      <point x="585.0" y="272.0"/>
      <point x="603.0" y="290.0"/>
      <point x="625.0" y="290.0" type="curve" smooth="yes"/>
      <point x="775.0" y="290.0" type="line" smooth="yes"/>
      <point x="797.0" y="290.0"/>
      <point x="815.0" y="272.0"/>
      <point x="815.0" y="250.0" type="curve" smooth="yes"/>
      <point x="815.0" y="228.0"/>
      <point x="797.0" y="210.0"/>
      <point x="775.0" y="210.0" type="curve" smooth="yes"/>
      <point x="625.0" y="210.0" type="line" smooth="yes"/>
      <point x="603.0" y="210.0"/>
      <point x="585.0" y="228.0"/>
    </contour>
    <contour>
      <point x="485.0" y="350.0" type="curve" smooth="yes"/>
      <point x="485.0" y="372.0"/>
      <point x="503.0" y="390.0"/>
      <point x="525.0" y="390.0" type="curve" smooth="yes"/>
      <point x="575.0" y="390.0" type="line" smooth="yes"/>
      <point x="597.0" y="390.0"/>
      <point x="615.0" y="372.0"/>
      <point x="615.0" y="350.0" type="curve" smooth="yes"/>
      <point x="615.0" y="328.0"/>
      <point x="597.0" y="310.0"/>
      <point x="575.0" y="310.0" type="curve" smooth="yes"/>
      <point x="525.0" y="310.0" type="line" smooth="yes"/>
      <point x="503.0" y="310.0"/>
      <point x="485.0" y="328.0"/>
    </contour>
    <contour>
      <point x="385.0" y="450.0" type="curve" smooth="yes"/>
      <point x="385.0" y="472.0"/>
      <point x="403.0" y="490.0"/>
      <point x="425.0" y="490.0" type="curve" smooth="yes"/>
      <point x="475.0" y="490.0" type="line" smooth="yes"/>
      <point x="497.0" y="490.0"/>
      <point x="515.0" y="472.0"/>
      <point x="515.0" y="450.0" type="curve" smooth="yes"/>
      <point x="515.0" y="428.0"/>
      <point x="497.0" y="410.0"/>
      <point x="475.0" y="410.0" type="curve" smooth="yes"/>
      <point x="425.0" y="410.0" type="line" smooth="yes"/>
      <point x="403.0" y="410.0"/>
      <point x="385.0" y="428.0"/>
    </contour>
    <contour>
      <point x="385.0" y="550.0" type="curve" smooth="yes"/>
      <point x="385.0" y="572.0"/>
      <point x="403.0" y="590.0"/>
      <point x="425.0" y="590.0" type="curve" smooth="yes"/>
      <point x="475.0" y="590.0" type="line" smooth="yes"/>
      <point x="497.0" y="590.0"/>
      <point x="515.0" y="572.0"/>
      <point x="515.0" y="550.0" type="curve" smooth="yes"/>
      <point x="515.0" y="528.0"/>
      <point x="497.0" y="510.0"/>
      <point x="475.0" y="510.0" type="curve" smooth="yes"/>
      <point x="425.0" y="510.0" type="line" smooth="yes"/>
      <point x="403.0" y="510.0"/>
      <point x="385.0" y="528.0"/>
    </contour>
    <contour>
      <point x="385.0" y="650.0" type="curve" smooth="yes"/>
      <point x="385.0" y="672.0"/>
      <point x="403.0" y="690.0"/>
      <point x="425.0" y="690.0" type="curve" smooth="yes"/>
      <point x="475.0" y="690.0" type="line" smooth="yes"/>
      <point x="497.0" y="690.0"/>
      <point x="515.0" y="672.0"/>
      <point x="515.0" y="650.0" type="curve" smooth="yes"/>
      <point x="515.0" y="628.0"/>
      <point x="497.0" y="610.0"/>
      <point x="475.0" y="610.0" type="curve" smooth="yes"/>
      <point x="425.0" y="610.0" type="line" smooth="yes"/>
      <point x="403.0" y="610.0"/>
      <point x="385.0" y="628.0"/>
    </contour>
  </outline>
</glyph>
<glyph name="uni2581" format="2">
  <advance width="800"/>
  <unicode hex="2581"/>
  <outline>
    <contour>
      <point x="-15.0" y="-50.0" type="curve" smooth="yes"/>
      <point x="-15.0" y="-28.0"/>
      <point x="3.0" y="-10.0"/>
      <point x="25.0" y="-10.0" type="curve" smooth="yes"/>
      <point x="775.0" y="-10.0" type="line" smooth="yes"/>
      <point x="797.0" y="-10.0"/>
      <point x="815.0" y="-28.0"/>
      <point x="815.0" y="-50.0" type="curve" smooth="yes"/>
      <point x="815.0" y="-72.0"/>
      <point x="797.0" y="-90.0"/>
      <point x="775.0" y="-90.0" type="curve" smooth="yes"/>
      <point x="25.0" y="-90.0" type="line" smooth="yes"/>
      <point x="3.0" y="-90.0"/>
      <point x="-15.0" y="-72.0"/>
    </contour>
  </outline>
</glyph>
<glyph name="uni2582" format="2">
  <advance width="800"/>
  <unicode hex="2582"/>
  <outline>
    <contour>
      <point x="-15.0" y="-50.0" type="curve" smooth="yes"/>
      <point x="-15.0" y="-28.0"/>
      <point x="3.0" y="-10.0"/>
      <point x="25.0" y="-10.0" type="curve" smooth="yes"/>
      <point x="775.0" y="-10.0" type="line" smooth="yes"/>
      <point x="797.0" y="-10.0"/>
      <point x="815.0" y="-28.0"/>
      <point x="815.0" y="-50.0" type="curve" smooth="yes"/>
      <point x="815.0" y="-72.0"/>
      <point x="797.0" y="-90.0"/>
      <point x="775.0" y="-90.0" type="curve" smooth="yes"/>
      <point x="25.0" y="-90.0" type="line" smooth="yes"/>
      <point x="3.0" y="-90.0"/>
      <point x="-15.0" y="-72.0"/>
    </contour>
    <contour>
      <point x="-15.0" y="50.0" type="curve" smooth="yes"/>
      <point x="-15.0" y="72.0"/>
      <point x="3.0" y="90.0"/>
      <point x="25.0" y="90.0" type="curve" smooth="yes"/>
      <point x="775.0" y="90.0" type="line" smooth="yes"/>
      <point x="797.0" y="90.0"/>
      <point x="815.0" y="72.0"/>
      <point x="815.0" y="50.0" type="curve" smooth="yes"/>
      <point x="815.0" y="28.0"/>
      <point x="797.0" y="10.0"/>
      <point x="775.0" y="10.0" type="curve" smooth="yes"/>
      <point x="25.0" y="10.0" type="line" smooth="yes"/>
      <point x="3.0" y="10.0"/>
      <point x="-15.0" y="28.0"/>
    </contour>
  </outline>
</glyph>
<glyph name="uni2594" format="2">
  <advance width="800"/>
  <unicode hex="2594"/>
  <outline>
    <contour>
      <point x="-15.0" y="650.0" type="curve" smooth="yes"/>
      <point x="-15.0" y="672.0"/>
      <point x="3.0" y="690.0"/>
      <point x="25.0" y="690.0" type="curve" smooth="yes"/>
      <point x="775.0" y="690.0" type="line" smooth="yes"/>
      <point x="797.0" y="690.0"/>
      <point x="815.0" y="672.0"/>
      <point x="815.0" y="650.0" type="curve" smooth="yes"/>
      <point x="815.0" y="628.0"/>
      <point x="797.0" y="610.0"/>
      <point x="775.0" y="610.0" type="curve" smooth="yes"/>
      <point x="25.0" y="610.0" type="line" smooth="yes"/>
      <point x="3.0" y="610.0"/>
      <point x="-15.0" y="628.0"/>
    </contour>
  </outline>
</glyph>
<glyph name="uni2596" format="2">
  <advance width="800"/>
  <unicode hex="2596"/>
  <outline>
    <contour>
      <point x="-15.0" y="-50.0" type="curve" smooth="yes"/>
      <point x="-15.0" y="-28.0"/>
      <point x="3.0" y="-10.0"/>
      <point x="25.0" y="-10.0" type="curve" smooth="yes"/>
      <point x="375.0" y="-10.0" type="line" smooth="yes"/>
      <point x="397.0" y="-10.0"/>
      <point x="415.0" y="-28.0"/>
      <point x="415.0" y="-50.0" type="curve" smooth="yes"/>
      <point x="415.0" y="-72.0"/>
      <point x="397.0" y="-90.0"/>
      <point x="375.0" y="-90.0" type="curve" smooth="yes"/>
      <point x="25.0" y="-90.0" type="line" smooth="yes"/>
      <point x="3.0" y="-90.0"/>
      <point x="-15.0" y="-72.0"/>
    </contour>
    <contour>
      <point x="-15.0" y="50.0" type="curve" smooth="yes"/>
      <point x="-15.0" y="72.0"/>
      <point x="3.0" y="90.0"/>
      <point x="25.0" y="90.0" type="curve" smooth="yes"/>
      <point x="375.0" y="90.0" type="line" smooth="yes"/>
      <point x="397.0" y="90.0"/>
      <point x="415.0" y="72.0"/>
      <point x="415.0" y="50.0" type="curve" smooth="yes"/>
      <point x="415.0" y="28.0"/>
      <point x="397.0" y="10.0"/>
      <point x="375.0" y="10.0" type="curve" smooth="yes"/>
      <point x="25.0" y="10.0" type="line" smooth="yes"/>
      <point x="3.0" y="10.0"/>
      <point x="-15.0" y="28.0"/>
    </contour>
    <contour>
      <point x="-15.0" y="150.0" type="curve" smooth="yes"/>
      <point x="-15.0" y="172.0"/>
      <point x="3.0" y="190.0"/>
      <point x="25.0" y="190.0" type="curve" smooth="yes"/>
      <point x="375.0" y="190.0" type="line" smooth="yes"/>
      <point x="397.0" y="190.0"/>
      <point x="415.0" y="172.0"/>
      <point x="415.0" y="150.0" type="curve" smooth="yes"/>
      <point x="415.0" y="128.0"/>
      <point x="397.0" y="110.0"/>
      <point x="375.0" y="110.0" type="curve" smooth="yes"/>
      <point x="25.0" y="110.0" type="line" smooth="yes"/>
      <point x="3.0" y="110.0"/>
      <point x="-15.0" y="128.0"/>
    </contour>
    <contour>
      <point x="-15.0" y="250.0" type="curve" smooth="yes"/>
      <point x="-15.0" y="272.0"/>
      <point x="3.0" y="290.0"/>
      <point x="25.0" y="290.0" type="curve" smooth="yes"/>
      <point x="375.0" y="290.0" type="line" smooth="yes"/>
      <point x="397.0" y="290.0"/>
      <point x="415.0" y="272.0"/>
      <point x="415.0" y="250.0" type="curve" smooth="yes"/>
      <point x="415.0" y="228.0"/>
      <point x="397.0" y="210.0"/>
      <point x="375.0" y="210.0" type="curve" smooth="yes"/>
      <point x="25.0" y="210.0" type="line" smooth="yes"/>
      <point x="3.0" y="210.0"/>
      <point x="-15.0" y="228.0"/>
    </contour>
  </outline>
</glyph>
<glyph name="uni259D" format="2">
  <advance width="800"/>
  <unicode hex="259D"/>
  <outline>
    <contour>
      <point x="385.0" y="350.0" type="curve" smooth="yes"/>
      <point x="385.0" y="372.0"/>
      <point x="403.0" y="390.0"/>
      <point x="425.0" y="390.0" type="curve" smooth="yes"/>
      <point x="775.0" y="390.0" type="line" smooth="yes"/>
      <point x="797.0" y="390.0"/>
      <point x="815.0" y="372.0"/>
      <point x="815.0" y="350.0" type="curve" smooth="yes"/>
      <point x="815.0" y="328.0"/>
      <point x="797.0" y="310.0"/>
      <point x="775.0" y="310.0" type="curve" smooth="yes"/>
      <point x="425.0" y="310.0" type="line" smooth="yes"/>
      <point x="403.0" y="310.0"/>
      <point x="385.0" y="328.0"/>
    </contour>
    <contour>
      <point x="385.0" y="450.0" type="curve" smooth="yes"/>
      <point x="385.0" y="472.0"/>
      <point x="403.0" y="490.0"/>
      <point x="425.0" y="490.0" type="curve" smooth="yes"/>
      <point x="775.0" y="490.0" type="line" smooth="yes"/>
      <point x="797.0" y="490.0"/>
      <point x="815.0" y="472.0"/>
      <point x="815.0" y="450.0" type="curve" smooth="yes"/>
      <point x="815.0" y="428.0"/>
      <point x="797.0" y="410.0"/>
      <point x="775.0" y="410.0" type="curve" smooth="yes"/>
      <point x="425.0" y="410.0" type="line" smooth="yes"/>
      <point x="403.0" y="410.0"/>
      <point x="385.0" y="428.0"/>
    </contour>
    <contour>
      <point x="385.0" y="550.0" type="curve" smooth="yes"/>
      <point x="385.0" y="572.0"/>
      <point x="403.0" y="590.0"/>
      <point x="425.0" y="590.0" type="curve" smooth="yes"/>
      <point x="775.0" y="590.0" type="line" smooth="yes"/>
      <point x="797.0" y="590.0"/>
      <point x="815.0" y="572.0"/>
      <point x="815.0" y="550.0" type="curve" smooth="yes"/>
      <point x="815.0" y="528.0"/>
      <point x="797.0" y="510.0"/>
      <point x="775.0" y="510.0" type="curve" smooth="yes"/>
      <point x="425.0" y="510.0" type="line" smooth="yes"/>
      <point x="403.0" y="510.0"/>
      <point x="385.0" y="528.0"/>
    </contour>
    <contour>
      <point x="385.0" y="650.0" type="curve" smooth="yes"/>
      <point x="385.0" y="672.0"/>
      <point x="403.0" y="690.0"/>
      <point x="425.0" y="690.0" type="curve" smooth="yes"/>
      <point x="775.0" y="690.0" type="line" smooth="yes"/>
      <point x="797.0" y="690.0"/>
      <point x="815.0" y="672.0"/>
      <point x="815.0" y="650.0" type="curve" smooth="yes"/>
      <point x="815.0" y="628.0"/>
      <point x="797.0" y="610.0"/>
      <point x="775.0" y="610.0" type="curve" smooth="yes"/>
      <point x="425.0" y="610.0" type="line" smooth="yes"/>
      <point x="403.0" y="610.0"/>
      <point x="385.0" y="628.0"/>
    </contour>
  </outline>
</glyph>
<glyph name="u1FB76" format="2">
  <advance width="800"/>
  <unicode hex="1FB76"/>
  <outline>
    <contour>
      <point x="-15.0" y="550.0" type="curve" smooth="yes"/>
      <point x="-15.0" y="572.0"/>
      <point x="3.0" y="590.0"/>
      <point x="25.0" y="590.0" type="curve" smooth="yes"/>
      <point x="775.0" y="590.0" type="line" smooth="yes"/>
      <point x="797.0" y="590.0"/>
      <point x="815.0" y="572.0"/>
      <point x="815.0" y="550.0" type="curve" smooth="yes"/>
      <point x="815.0" y="528.0"/>
      <point x="797.0" y="510.0"/>
      <point x="775.0" y="510.0" type="curve" smooth="yes"/>
      <point x="25.0" y="510.0" type="line" smooth="yes"/>
      <point x="3.0" y="510.0"/>
      <point x="-15.0" y="528.0"/>
    </contour>
  </outline>
</glyph>
<glyph name="u1FB77" format="2">
  <advance width="800"/>
  <unicode hex="1FB77"/>
  <outline>
    <contour>
      <point x="-15.0" y="450.0" type="curve" smooth="yes"/>
      <point x="-15.0" y="472.0"/>
      <point x="3.0" y="490.0"/>
      <point x="25.0" y="490.0" type="curve" smooth="yes"/>
      <point x="775.0" y="490.0" type="line" smooth="yes"/>
      <point x="797.0" y="490.0"/>
      <point x="815.0" y="472.0"/>
      <point x="815.0" y="450.0" type="curve" smooth="yes"/>
      <point x="815.0" y="428.0"/>
      <point x="797.0" y="410.0"/>
      <point x="775.0" y="410.0" type="curve" smooth="yes"/>
      <point x="25.0" y="410.0" type="line" smooth="yes"/>
      <point x="3.0" y="410.0"/>
      <point x="-15.0" y="428.0"/>
    </contour>
  </outline>
</glyph>
<glyph name="u1FB78" format="2">
  <advance width="800"/>
  <unicode hex="1FB78"/>
  <outline>
    <contour>
      <point x="-15.0" y="350.0" type="curve" smooth="yes"/>
      <point x="-15.0" y="372.0"/>
      <point x="3.0" y="390.0"/>
      <point x="25.0" y="390.0" type="curve" smooth="yes"/>
      <point x="775.0" y="390.0" type="line" smooth="yes"/>
      <point x="797.0" y="390.0"/>
      <point x="815.0" y="372.0"/>
      <point x="815.0" y="350.0" type="curve" smooth="yes"/>
      <point x="815.0" y="328.0"/>
      <point x="797.0" y="310.0"/>
      <point x="775.0" y="310.0" type="curve" smooth="yes"/>
      <point x="25.0" y="310.0" type="line" smooth="yes"/>
      <point x="3.0" y="310.0"/>
      <point x="-15.0" y="328.0"/>
    </contour>
  </outline>
</glyph>
<glyph name="u1FB7A" format="2">
  <advance width="800"/>
  <unicode hex="1FB7A"/>
  <outline>
    <contour>
      <point x="-15.0" y="150.0" type="curve" smooth="yes"/>
      <point x="-15.0" y="172.0"/>
      <point x="3.0" y="190.0"/>
      <point x="25.0" y="190.0" type="curve" smooth="yes"/>
      <point x="775.0" y="190.0" type="line" smooth="yes"/>
      <point x="797.0" y="190.0"/>
      <point x="815.0" y="172.0"/>
      <point x="815.0" y="150.0" type="curve" smooth="yes"/>
      <point x="815.0" y="128.0"/>
      <point x="797.0" y="110.0"/>
      <point x="775.0" y="110.0" type="curve" smooth="yes"/>
      <point x="25.0" y="110.0" type="line" smooth="yes"/>
      <point x="3.0" y="110.0"/>
      <point x="-15.0" y="128.0"/>
    </contour>
  </outline>
</glyph>
